<svg xmlns="http://www.w3.org/2000/svg" width="66" height="60" viewBox="0 0 66 60">
    <defs>
        <linearGradient id="prefix__a" x1="50%" x2="50%" y1="0%" y2="100%">
            <stop offset="0%" stop-color="#4F9CDC" stop-opacity=".4"/>
            <stop offset="100%" stop-color="#4F9CDC"/>
        </linearGradient>
    </defs>
    <g fill="url(#prefix__a)" fill-rule="evenodd" transform="translate(-2)">
        <path d="M3.039 38.264L32.023 21.7c1.845-1.054 4.11-1.054 5.954 0L66.96 38.264c.96.548 1.292 1.77.744 2.728-.177.31-.434.567-.744.744L37.977 58.3c-1.845 1.054-4.11 1.054-5.954 0L3.04 41.736c-.96-.548-1.292-1.77-.744-2.728.177-.31.434-.567.744-.744z" opacity=".2"/>
        <path d="M3.039 28.264L32.023 11.7c1.845-1.054 4.11-1.054 5.954 0L66.96 28.264c.96.548 1.292 1.77.744 2.728-.177.31-.434.567-.744.744L37.977 48.3c-1.845 1.054-4.11 1.054-5.954 0L3.04 31.736c-.96-.548-1.292-1.77-.744-2.728.177-.31.434-.567.744-.744z" opacity=".6"/>
        <path d="M3.039 18.264L32.023 1.7c1.845-1.054 4.11-1.054 5.954 0L66.96 18.264c.96.548 1.292 1.77.744 2.728-.177.31-.434.567-.744.744L37.977 38.3c-1.845 1.054-4.11 1.054-5.954 0L3.04 21.736c-.96-.548-1.292-1.77-.744-2.728.177-.31.434-.567.744-.744z"/>
    </g>
</svg>
